<svg width="16" height="17" viewBox="0 0 16 17" fill="none" xmlns="http://www.w3.org/2000/svg">
<path d="M7.99998 1.83325C6.68144 1.83325 5.39251 2.22425 4.29618 2.95679C3.19985 3.68933 2.34537 4.73052 1.84079 5.9487C1.3362 7.16687 1.20418 8.50731 1.46141 9.80052C1.71865 11.0937 2.35359 12.2816 3.28594 13.214C4.21829 14.1463 5.40617 14.7813 6.69938 15.0385C7.99259 15.2957 9.33303 15.1637 10.5512 14.6591C11.7694 14.1545 12.8106 13.3 13.5431 12.2037C14.2757 11.1074 14.6666 9.81846 14.6666 8.49992C14.6666 7.62444 14.4942 6.75753 14.1592 5.9487C13.8241 5.13986 13.3331 4.40493 12.714 3.78587C12.095 3.16682 11.36 2.67575 10.5512 2.34072C9.74237 2.00569 8.87546 1.83325 7.99998 1.83325ZM7.99998 13.8333C6.94515 13.8333 5.914 13.5205 5.03694 12.9344C4.15988 12.3484 3.47629 11.5154 3.07263 10.5409C2.66896 9.56636 2.56334 8.494 2.76913 7.45944C2.97492 6.42487 3.48287 5.47456 4.22875 4.72868C4.97463 3.9828 5.92494 3.47485 6.9595 3.26906C7.99407 3.06328 9.06642 3.16889 10.041 3.57256C11.0155 3.97623 11.8485 4.65982 12.4345 5.53688C13.0205 6.41394 13.3333 7.44509 13.3333 8.49992C13.3333 9.91441 12.7714 11.271 11.7712 12.2712C10.771 13.2713 9.41447 13.8333 7.99998 13.8333ZM8.33332 5.16659H6.33332C6.15651 5.16659 5.98694 5.23682 5.86191 5.36185C5.73689 5.48687 5.66665 5.65644 5.66665 5.83325V11.1666C5.66665 11.3434 5.73689 11.513 5.86191 11.638C5.98694 11.763 6.15651 11.8333 6.33332 11.8333C6.51013 11.8333 6.6797 11.763 6.80472 11.638C6.92975 11.513 6.99998 11.3434 6.99998 11.1666V9.83325H8.33332C8.51013 9.83325 8.6797 9.90349 8.80472 10.0285C8.92975 10.1535 8.99998 10.3231 8.99998 10.4999V11.1666C8.99998 11.3434 9.07022 11.513 9.19525 11.638C9.32027 11.763 9.48984 11.8333 9.66665 11.8333C9.84346 11.8333 10.013 11.763 10.1381 11.638C10.2631 11.513 10.3333 11.3434 10.3333 11.1666V10.4999C10.3304 10.0065 10.1452 9.53168 9.81332 9.16659C10.1452 8.80149 10.3304 8.32662 10.3333 7.83325V7.16659C10.3333 6.63615 10.1226 6.12744 9.74753 5.75237C9.37246 5.3773 8.86375 5.16659 8.33332 5.16659ZM8.99998 7.83325C8.99998 8.01006 8.92975 8.17963 8.80472 8.30466C8.6797 8.42968 8.51013 8.49992 8.33332 8.49992H6.99998V6.49992H8.33332C8.51013 6.49992 8.6797 6.57016 8.80472 6.69518C8.92975 6.82021 8.99998 6.98977 8.99998 7.16659V7.83325Z" fill="white"/>
</svg>
